<svg width="512" height="512" viewBox="0 0 512 512" fill="none" xmlns="http://www.w3.org/2000/svg">
<rect width="512" height="512" fill="white"/>
<path d="M219.387 288V236H239.787C246.276 236 250.965 237.178 253.854 239.533C256.743 241.889 258.187 245.067 258.187 249.067C258.187 251.644 257.565 253.733 256.32 255.333C255.076 256.933 253.187 258.111 250.654 258.867V260.467C254.031 261.222 256.587 262.556 258.32 264.467C260.098 266.378 260.987 269.156 260.987 272.8C260.987 277.378 259.476 281.067 256.454 283.867C253.476 286.622 248.543 288 241.654 288H219.387ZM230.054 280H240.187C243.565 280 246.009 279.333 247.52 278C249.031 276.622 249.787 274.756 249.787 272.4C249.787 269.778 248.943 267.867 247.254 266.667C245.565 265.422 243.209 264.8 240.187 264.8H230.054V280ZM230.054 256.933H238.987C241.52 256.933 243.52 256.422 244.987 255.4C246.498 254.333 247.254 252.689 247.254 250.467C247.254 246.156 244.498 244 238.987 244H230.054V256.933ZM284.659 289C278.348 289 273.526 287.111 270.192 283.333C266.903 279.556 265.259 274.422 265.259 267.933C265.259 263.578 265.992 259.844 267.459 256.733C268.97 253.622 271.148 251.222 273.992 249.533C276.881 247.844 280.392 247 284.526 247C290.481 247 295.037 248.8 298.192 252.4C301.392 256 302.992 261.289 302.992 268.267V270.533H275.792C276.014 273.911 276.881 276.578 278.392 278.533C279.948 280.444 282.037 281.4 284.659 281.4C286.748 281.4 288.414 280.778 289.659 279.533C290.948 278.289 291.792 276.844 292.192 275.2H302.459C302.059 277.644 301.17 279.911 299.792 282C298.414 284.089 296.481 285.778 293.992 287.067C291.503 288.356 288.392 289 284.659 289ZM275.792 263.733H292.459C292.281 260.711 291.526 258.378 290.192 256.733C288.859 255.044 286.948 254.2 284.459 254.2C282.014 254.2 280.037 255 278.526 256.6C277.059 258.156 276.148 260.533 275.792 263.733ZM309.823 288V248H319.69V255.333H321.29C321.557 254 322.046 252.756 322.757 251.6C323.512 250.4 324.646 249.444 326.157 248.733C327.668 247.978 329.69 247.6 332.223 247.6H334.357V257.333H331.423C327.646 257.333 324.89 258.289 323.157 260.2C321.468 262.111 320.623 264.978 320.623 268.8V288H309.823ZM341.152 288V248H351.018V255.333H352.618C352.885 254 353.374 252.756 354.085 251.6C354.84 250.4 355.974 249.444 357.485 248.733C358.996 247.978 361.018 247.6 363.552 247.6H365.685V257.333H362.752C358.974 257.333 356.218 258.289 354.485 260.2C352.796 262.111 351.952 264.978 351.952 268.8V288H341.152ZM375.08 301.333V301.2C376.191 299.378 377.391 297.267 378.68 294.867C379.969 292.467 381.102 290.178 382.08 288L368.346 248.4V248H379.013L383.146 260C383.813 261.911 384.48 263.956 385.146 266.133C385.813 268.311 386.48 271.067 387.146 274.4H388.746C389.413 271.067 390.08 268.311 390.746 266.133C391.413 263.956 392.08 261.911 392.746 260L396.88 248H407.013V248.4L394.746 282.533C393.146 287.022 391.591 290.844 390.08 294C388.613 297.2 387.369 299.644 386.346 301.333H375.08Z" fill="black"/>
<path d="M158.658 200.103C156.274 201.257 150.644 203.979 146.123 206.123C141.603 208.308 134.945 211.483 131.329 213.215C127.712 214.947 120.068 218.617 114.397 221.297L104 226.245V258.696V291.146L106.589 289.992C112.918 287.105 133.055 277.457 133.877 276.921L134.822 276.343L134.904 254.943L135.027 233.584L140.781 236.347C143.945 237.831 150.356 240.924 155.082 243.151L163.589 247.233V262.077V276.962L145.795 285.415C136.055 290.033 125.904 294.899 123.315 296.177L118.589 298.527L120.027 299.146C120.849 299.517 125 301.455 129.233 303.516C133.507 305.578 137.041 307.269 137.082 307.269C137.164 307.269 139.836 308.547 143.082 310.155L148.877 313L166.63 304.506C176.37 299.847 186.521 295.022 189.192 293.744L194 291.435L193.918 269.829L193.795 248.222L178.712 240.965L163.589 233.749V215.854C163.589 206.041 163.466 198 163.301 198C163.096 198 161.041 198.948 158.658 200.103Z" fill="#6C43D0"/>
</svg>
